<svg width="18" height="18" viewBox="0 0 18 18" fill="none" xmlns="http://www.w3.org/2000/svg">
<path d="M4.90898 11.2458L3.37402 4H15.9997C16.6506 4 17.1276 4.61098 16.9696 5.24296L15.6217 10.6348C15.4167 11.4538 14.7207 12.0558 13.8807 12.1398L7.06492 12.8217C6.04895 12.9227 5.11997 12.2438 4.90898 11.2458Z" stroke="#E16364" stroke-width="1.5" stroke-linecap="round" stroke-linejoin="round"/>
<path d="M3.37393 3.99991L2.72395 1H1" stroke="#E16364" stroke-width="1.5" stroke-linecap="round" stroke-linejoin="round"/>
<path d="M14.6086 16.2666C14.4066 16.2666 14.2426 16.4306 14.2446 16.6326C14.2446 16.8346 14.4086 16.9986 14.6106 16.9986C14.8126 16.9986 14.9766 16.8346 14.9766 16.6326C14.9756 16.4306 14.8116 16.2666 14.6086 16.2666Z" stroke="#E16364" stroke-width="1.5" stroke-linecap="round" stroke-linejoin="round"/>
<path d="M6.1975 16.2666C5.99551 16.2666 5.83151 16.4306 5.83351 16.6326C5.83151 16.8356 5.99651 16.9996 6.1985 16.9996C6.4005 16.9996 6.56449 16.8356 6.56449 16.6336C6.56449 16.4306 6.4005 16.2666 6.1975 16.2666Z" stroke="#E16364" stroke-width="1.5" stroke-linecap="round" stroke-linejoin="round"/>
</svg>
