<svg width="45" height="6" viewBox="0 0 45 6" fill="none" xmlns="http://www.w3.org/2000/svg">
<path d="M0 3C0 1.34315 1.34315 0 3 0H16C17.6569 0 19 1.34315 19 3C19 4.65685 17.6569 6 16 6H3C1.34315 6 0 4.65685 0 3Z" fill="#0066FF"/>
<path opacity="0.2" d="M26 3C26 1.34315 27.3431 0 29 0C30.6569 0 32 1.34315 32 3C32 4.65685 30.6569 6 29 6C27.3431 6 26 4.65685 26 3Z" fill="#0066FF"/>
<path opacity="0.2" d="M39 3C39 1.34315 40.3431 0 42 0C43.6569 0 45 1.34315 45 3C45 4.65685 43.6569 6 42 6C40.3431 6 39 4.65685 39 3Z" fill="#0066FF"/>
</svg>
