<svg width="45" height="6" viewBox="0 0 45 6" fill="none" xmlns="http://www.w3.org/2000/svg">
<path d="M26 3C26 1.34315 27.3431 0 29 0H42C43.6569 0 45 1.34315 45 3C45 4.65685 43.6569 6 42 6H29C27.3431 6 26 4.65685 26 3Z" fill="#0066FF"/>
<path opacity="0.2" d="M0 3C0 1.34315 1.34315 0 3 0C4.65685 0 6 1.34315 6 3C6 4.65685 4.65685 6 3 6C1.34315 6 0 4.65685 0 3Z" fill="#41455E"/>
<path opacity="0.2" d="M13 3C13 1.34315 14.3431 0 16 0C17.6569 0 19 1.34315 19 3C19 4.65685 17.6569 6 16 6C14.3431 6 13 4.65685 13 3Z" fill="#41455E"/>
</svg>
